{"title":"Marvels Agents of S.H.I.E.L.D. S01E09 HDTV 480p x264 - VYTO [P2P","uid":9256269,"size":162182147,"categoryP":"video","categoryS":"tv_shows","magnet":"?xt=urn:btih:a8862b6364a5c943671ef2f886cc42dc4bf20de5&amp;dn=Marvels+Agents+of+S.H.I.E.L.D.+S01E09+HDTV+480p+x264+-+VYTO+%5BP2P&amp;tr=udp%3A%2F%2Ftracker.openbittorrent.com%3A80&amp;tr=udp%3A%2F%2Fopen.demonii.com%3A1337&amp;tr=udp%3A%2F%2Ftracker.coppersurfer.tk%3A6969&amp;tr=udp%3A%2F%2Fexodus.desync.com%3A6969","seeders":1,"leechers":0,"uploader":"Vitamin_X","files":-1,"time":1385551781,"description":"_______ Visit us at our Semi Public Bittorrent Community ________\n  &lt;a href=&quot;\nhttp://p2pdl.com&quot; rel=&quot;nofollow&quot; target=&quot;_NEW&quot;&gt;\nhttp://p2pdl.com&lt;/a&gt;  _____________________________ &lt;a href=&quot; http://p2pdl.com&quot; rel=&quot;nofollow&quot; target=&quot;_NEW&quot;&gt; http://p2pdl.com&lt;/a&gt;\n\n\n\nMarvels Agents of S.H.I.E.L.D. S01E09 HDTV 480p x264 - VYTO\n\n\nMarvels Agents of S.H.I.E.L.D. S01E09 (Repairs) \n &lt;a href=&quot;\nhttp://www.imdb.com/title/tt3252332/&quot; rel=&quot;nofollow&quot; target=&quot;_NEW&quot;&gt;\nhttp://www.imdb.com/title/tt3252332/&lt;/a&gt;\n\nThe missions of the Strategic Homeland Intervention, Enforcement and Logistics Division. \n\n\nGeneral\nFormat                         : MPEG-4\nFile size                      : 150 MiB\nDuration                       : 43mn 32s\nOverall bit rate mode          : Variable\nOverall bit rate               : 481 Kbps\n\nVideo\nFormat                         : AVC\nBit rate                       : 439 Kbps\nWidth                          : 720 pixels\nHeight                         : 400 pixels\nDisplay aspect ratio           : 16:9\nFrame rate mode                : Constant\nFrame rate                     : 23.976 fps\nBit depth                      : 10 bits\nStream size                    : 137 MiB (91%)\nWriting library                : x264 core 138 r2358 9e941d1\n\nAudio\nFormat                         : AAC\nBit rate                       : 39.9 Kbps\nChannel count                  : 2 channels\nChannel positions              : Front: L R\nSampling rate                  : 48.0 KHz / 24.0 KHz\nStream size                    : 12.4 MiB (8%)\n\n\nSubtitle                       : N/a\n\nSource                         : 720p.HDTV.X264-DIMENSION\n\nScreenshots:\n &lt;a href=&quot;\nhttp://ultraimg.com/images/fjC5G.png&quot; rel=&quot;nofollow&quot; target=&quot;_NEW&quot;&gt;\nhttp://ultraimg.com/images/fjC5G.png&lt;/a&gt; &lt;a href=&quot;\nhttp://ultraimg.com/images/3n7B6.png&quot; rel=&quot;nofollow&quot; target=&quot;_NEW&quot;&gt;\nhttp://ultraimg.com/images/3n7B6.png&lt;/a&gt; &lt;a href=&quot;\nhttp://ultraimg.com/images/Ht843.png&quot; rel=&quot;nofollow&quot; target=&quot;_NEW&quot;&gt;\nhttp://ultraimg.com/images/Ht843.png&lt;/a&gt; &lt;a href=&quot;\nhttp://ultraimg.com/images/Lw5ka.png&quot; rel=&quot;nofollow&quot; target=&quot;_NEW&quot;&gt;\nhttp://ultraimg.com/images/Lw5ka.png&lt;/a&gt; &lt;a href=&quot;\nhttp://ultraimg.com/images/3gjJ.png&quot; rel=&quot;nofollow&quot; target=&quot;_NEW&quot;&gt;\nhttp://ultraimg.com/images/3gjJ.png&lt;/a&gt;\n\n----------------------------------------------------------------------------------------------------\n\n\nEncoded using revolutionary 10bit encoding, which enables us to provide you more crispier \nand sharper images at small sizes, just make sure you follow our instructions without a fault.\nRecommend to you to use latest version of VLC player. Install K-Lite Codec Pack or shark007 codecs\nin case of any kind of problem in playback (For non-VLC Media Player users). Alternatively, install\nCore AVC codecs, the fastest decoder that there is coupled with Community Center Codec Pack and play\non Windows Media Player Classic. Check sample to be sure.\nEnjoy!\n\nEncoder Notes:Looking For Early Access To Anything You Can Provide DVDScr, R5, DVDR, BluRay, Direct\nAudio, Music Releases and Seedboxes. We require dedicated servers, so as to do more \nand fast releases of movies.\nIf You Got anything to offer please contact us at &quot;&lt;a class=&quot;__cf_email__&quot; href=&quot;/cdn-cgi/l/email-protection&quot; data-cfemail=&quot;75050712351d00061d5b161a18&quot;&gt;[email&amp;#160;protected]&lt;/a&gt;&lt;script cf-hash='f9e31' type=&quot;text/javascript&quot;&gt;\n/* &lt;![CDATA[ */!function(){try{var t=&quot;currentScript&quot;in document?document.currentScript:function(){for(var t=document.getElementsByTagName(&quot;script&quot;),e=t.length;e--;)if(t[e].getAttribute(&quot;cf-hash&quot;))return t[e]}();if(t&amp;&amp;t.previousSibling){var e,r,n,i,c=t.previousSibling,a=c.getAttribute(&quot;data-cfemail&quot;);if(a){for(e=&quot;&quot;,r=parseInt(a.substr(0,2),16),n=2;a.length-n;n+=2)i=parseInt(a.substr(n,2),16)^r,e+=String.fromCharCode(i);e=document.createTextNode(e),c.parentNode.replaceChild(e,c)}}}catch(u){}}();/* ]]&gt; */&lt;/script&gt;&quot;.\n\nFacebook Fan Page:  \nSearch P2PDL on FB and don't forget to hit like!!!\n\nSupport us, please consider a donation.\n\nFor more of our team uploads visit @            &lt;a href=&quot;\nhttp://thepiratebay.se/user/varuttee&quot; rel=&quot;nofollow&quot; target=&quot;_NEW&quot;&gt;\nhttp://thepiratebay.se/user/varuttee&lt;/a&gt;","torrent":{"xt":"urn:btih:a8862b6364a5c943671ef2f886cc42dc4bf20de5","amp;dn":"Marvels+Agents+of+S.H.I.E.L.D.+S01E09+HDTV+480p+x264+-+VYTO+%5BP2P","amp;tr":["udp%3A%2F%2Ftracker.openbittorrent.com%3A80","udp%3A%2F%2Fopen.demonii.com%3A1337","udp%3A%2F%2Ftracker.coppersurfer.tk%3A6969","udp%3A%2F%2Fexodus.desync.com%3A6969"],"infoHash":"a8862b6364a5c943671ef2f886cc42dc4bf20de5","infoHashBuffer":{"type":"Buffer","data":[168,134,43,99,100,165,201,67,103,30,242,248,134,204,66,220,75,242,13,229]},"announce":[],"urlList":[]}}